<svg version="1.2" xmlns="http://www.w3.org/2000/svg" viewBox="0 0 36 42" width="36" height="42"><style>.a{fill:#092043}.b{fill:#bd1717}</style><path class="a" d="m0 6h2v36h-2zm0 0h28v2h-28zm26 0h2v36h-2zm-26 34h28v2h-28zm4-30h2v12h-2zm0 12h8v2h-8zm6-12h2v12h-2zm-6 0h8v2h-8zm10 0h10v2h-10zm0 4h10v2h-10zm0 4h10v2h-10zm0 4h10v2h-10zm-4 4h14v2h-14zm0 4h14v2h-14zm0 4h14v2h-14zm-6-8h4v2h-4zm0 4h4v2h-4zm0 4h4v2h-4z"/><path class="b" d="m33.7 0l2.3 2.3-15.7 15.7-2.3-2.3zm2.3 15.7l-2.3 2.2-15.6-15.6 2.2-2.3z"/></svg>