<svg version="1.2" xmlns="http://www.w3.org/2000/svg" viewBox="0 0 40 46" width="40" height="46"><style>.a{fill:#092043}.b{fill:#0aa520}</style><path class="a" d="m0 10h2v36h-2zm0 0h28v2h-28zm26 0h2v36h-2zm-26 34h28v2h-28zm4-30h2v12h-2zm0 12h8v2h-8zm6-12h2v12h-2zm-6 0h8v2h-8zm10 0h10v2h-10zm0 4h10v2h-10zm0 4h10v2h-10zm0 4h10v2h-10zm-4 4h14v2h-14zm0 4h14v2h-14zm0 4h14v2h-14zm-6-8h4v2h-4zm0 4h4v2h-4zm0 4h4v2h-4z"/><path class="b" d="m20 4.9l1.6-0.6 8.2 9.1-1.6 0.6zm9 8.5l-2.1-0.8 11-12.6 2.1 0.8zm-11-8.5l1.6-0.6 8.2 9.1-1.6 0.6zm9 8.5l-2.1-0.8 11-12.6 2.2 0.8z"/></svg>