<svg version="1.2" xmlns="http://www.w3.org/2000/svg" viewBox="0 0 40 40" width="40" height="40"><style>.a{fill:#fff;stroke:#092043;paint-order:stroke fill markers;stroke-linejoin:round;stroke-width:4}.b{fill:#092043}</style><path class="a" d="m17.6 32c-8.3 0-15-6.7-15-15 0-8.3 6.7-15 15-15 8.3 0 15 6.7 15 15 0 8.3-6.7 15-15 15z"/><path class="b" d="m29.1 27.2l9.9 10-2.9 2.8-9.8-10zm-19.2-15.2h2v12h-2zm4-6h2v20h-2zm5 4h1v16h-1zm-1 0h1v16h-1zm5 4h1v10h-1zm-1 0h1v10h-1zm5 4h1v6h-1zm-1 0h1v6h-1z"/></svg>